<mxfile host="app.diagrams.net" modified="2023-07-27T09:56:22.697Z" agent="Mozilla/5.0 (Macintosh; Intel Mac OS X 10_15_7) AppleWebKit/537.36 (KHTML, like Gecko) Chrome/114.0.0.0 Safari/537.36" etag="EA5qxgvvFtdo9084Mp8W" version="21.6.5" type="github">
  <diagram name="第 1 页" id="WqXJhaSLLUQTE0gSCGbV">
    <mxGraphModel dx="1073" dy="827" grid="1" gridSize="10" guides="1" tooltips="1" connect="1" arrows="1" fold="1" page="1" pageScale="1" pageWidth="827" pageHeight="1169" math="0" shadow="0">
      <root>
        <mxCell id="0" />
        <mxCell id="1" parent="0" />
        <mxCell id="pC1CZpYvU-gQLA5faWjE-1" value="node-excute" style="rounded=0;whiteSpace=wrap;html=1;" vertex="1" parent="1">
          <mxGeometry x="660" y="370" width="140" height="60" as="geometry" />
        </mxCell>
        <mxCell id="pC1CZpYvU-gQLA5faWjE-3" value="task-async" style="rounded=0;whiteSpace=wrap;html=1;" vertex="1" parent="1">
          <mxGeometry x="420" y="370" width="120" height="60" as="geometry" />
        </mxCell>
        <mxCell id="pC1CZpYvU-gQLA5faWjE-4" value="flow-manager" style="rounded=0;whiteSpace=wrap;html=1;" vertex="1" parent="1">
          <mxGeometry x="420" y="210" width="120" height="60" as="geometry" />
        </mxCell>
        <mxCell id="pC1CZpYvU-gQLA5faWjE-5" value="controller" style="rounded=0;whiteSpace=wrap;html=1;" vertex="1" parent="1">
          <mxGeometry x="159" y="210" width="120" height="220" as="geometry" />
        </mxCell>
        <mxCell id="pC1CZpYvU-gQLA5faWjE-6" value="Mysql DB" style="rounded=0;whiteSpace=wrap;html=1;" vertex="1" parent="1">
          <mxGeometry x="160" y="560" width="640" height="60" as="geometry" />
        </mxCell>
        <mxCell id="pC1CZpYvU-gQLA5faWjE-7" value="" style="shape=flexArrow;endArrow=classic;html=1;rounded=0;exitX=0.5;exitY=1;exitDx=0;exitDy=0;" edge="1" parent="1" source="pC1CZpYvU-gQLA5faWjE-5">
          <mxGeometry width="50" height="50" relative="1" as="geometry">
            <mxPoint x="249" y="520" as="sourcePoint" />
            <mxPoint x="219" y="550" as="targetPoint" />
          </mxGeometry>
        </mxCell>
        <mxCell id="pC1CZpYvU-gQLA5faWjE-8" value="add" style="text;html=1;align=center;verticalAlign=middle;resizable=0;points=[];autosize=1;strokeColor=none;fillColor=none;" vertex="1" parent="1">
          <mxGeometry x="219" y="440" width="40" height="30" as="geometry" />
        </mxCell>
        <mxCell id="pC1CZpYvU-gQLA5faWjE-9" value="delete" style="text;html=1;align=center;verticalAlign=middle;resizable=0;points=[];autosize=1;strokeColor=none;fillColor=none;" vertex="1" parent="1">
          <mxGeometry x="209" y="470" width="60" height="30" as="geometry" />
        </mxCell>
        <mxCell id="pC1CZpYvU-gQLA5faWjE-10" value="add" style="text;html=1;align=center;verticalAlign=middle;resizable=0;points=[];autosize=1;strokeColor=none;fillColor=none;" vertex="1" parent="1">
          <mxGeometry x="284" y="210" width="40" height="30" as="geometry" />
        </mxCell>
        <mxCell id="pC1CZpYvU-gQLA5faWjE-11" value="" style="shape=flexArrow;endArrow=classic;html=1;rounded=0;exitX=1.017;exitY=0.136;exitDx=0;exitDy=0;exitPerimeter=0;" edge="1" parent="1" source="pC1CZpYvU-gQLA5faWjE-5">
          <mxGeometry width="50" height="50" relative="1" as="geometry">
            <mxPoint x="310" y="410" as="sourcePoint" />
            <mxPoint x="410" y="240" as="targetPoint" />
          </mxGeometry>
        </mxCell>
        <mxCell id="pC1CZpYvU-gQLA5faWjE-12" value="pause" style="text;html=1;align=center;verticalAlign=middle;resizable=0;points=[];autosize=1;strokeColor=none;fillColor=none;" vertex="1" parent="1">
          <mxGeometry x="324" y="360" width="60" height="30" as="geometry" />
        </mxCell>
        <mxCell id="pC1CZpYvU-gQLA5faWjE-13" value="stop" style="text;html=1;align=center;verticalAlign=middle;resizable=0;points=[];autosize=1;strokeColor=none;fillColor=none;" vertex="1" parent="1">
          <mxGeometry x="284" y="360" width="50" height="30" as="geometry" />
        </mxCell>
        <mxCell id="pC1CZpYvU-gQLA5faWjE-14" value="" style="shape=flexArrow;endArrow=classic;html=1;rounded=0;exitX=0.2;exitY=-0.017;exitDx=0;exitDy=0;exitPerimeter=0;entryX=0.2;entryY=1;entryDx=0;entryDy=0;entryPerimeter=0;" edge="1" parent="1" source="pC1CZpYvU-gQLA5faWjE-3" target="pC1CZpYvU-gQLA5faWjE-4">
          <mxGeometry width="50" height="50" relative="1" as="geometry">
            <mxPoint x="590" y="340" as="sourcePoint" />
            <mxPoint x="640" y="290" as="targetPoint" />
          </mxGeometry>
        </mxCell>
        <mxCell id="pC1CZpYvU-gQLA5faWjE-17" value="" style="shape=flexArrow;endArrow=classic;html=1;rounded=0;exitX=0.75;exitY=1;exitDx=0;exitDy=0;entryX=0.75;entryY=0;entryDx=0;entryDy=0;" edge="1" parent="1" source="pC1CZpYvU-gQLA5faWjE-4" target="pC1CZpYvU-gQLA5faWjE-3">
          <mxGeometry width="50" height="50" relative="1" as="geometry">
            <mxPoint x="690" y="260" as="sourcePoint" />
            <mxPoint x="740" y="210" as="targetPoint" />
          </mxGeometry>
        </mxCell>
        <mxCell id="pC1CZpYvU-gQLA5faWjE-18" value="add node" style="text;html=1;align=center;verticalAlign=middle;resizable=0;points=[];autosize=1;strokeColor=none;fillColor=none;" vertex="1" parent="1">
          <mxGeometry x="550" y="210" width="70" height="30" as="geometry" />
        </mxCell>
        <mxCell id="pC1CZpYvU-gQLA5faWjE-19" value="node-controller" style="rounded=0;whiteSpace=wrap;html=1;" vertex="1" parent="1">
          <mxGeometry x="680" y="210" width="120" height="60" as="geometry" />
        </mxCell>
        <mxCell id="pC1CZpYvU-gQLA5faWjE-20" value="" style="shape=flexArrow;endArrow=classic;html=1;rounded=0;exitX=1;exitY=0.5;exitDx=0;exitDy=0;entryX=0;entryY=0.5;entryDx=0;entryDy=0;" edge="1" parent="1" source="pC1CZpYvU-gQLA5faWjE-4" target="pC1CZpYvU-gQLA5faWjE-19">
          <mxGeometry width="50" height="50" relative="1" as="geometry">
            <mxPoint x="570" y="190" as="sourcePoint" />
            <mxPoint x="620" y="140" as="targetPoint" />
          </mxGeometry>
        </mxCell>
        <mxCell id="pC1CZpYvU-gQLA5faWjE-21" value="" style="shape=flexArrow;endArrow=classic;html=1;rounded=0;exitX=0.5;exitY=1;exitDx=0;exitDy=0;" edge="1" parent="1" source="pC1CZpYvU-gQLA5faWjE-19">
          <mxGeometry width="50" height="50" relative="1" as="geometry">
            <mxPoint x="750" y="420" as="sourcePoint" />
            <mxPoint x="740" y="370" as="targetPoint" />
          </mxGeometry>
        </mxCell>
        <mxCell id="pC1CZpYvU-gQLA5faWjE-23" value="new excute node" style="text;html=1;align=center;verticalAlign=middle;resizable=0;points=[];autosize=1;strokeColor=none;fillColor=none;" vertex="1" parent="1">
          <mxGeometry x="740" y="290" width="110" height="30" as="geometry" />
        </mxCell>
        <mxCell id="pC1CZpYvU-gQLA5faWjE-25" value="" style="shape=flexArrow;endArrow=classic;html=1;rounded=0;exitX=0;exitY=0.75;exitDx=0;exitDy=0;" edge="1" parent="1" source="pC1CZpYvU-gQLA5faWjE-1">
          <mxGeometry width="50" height="50" relative="1" as="geometry">
            <mxPoint x="720" y="710" as="sourcePoint" />
            <mxPoint x="550" y="415" as="targetPoint" />
          </mxGeometry>
        </mxCell>
        <mxCell id="pC1CZpYvU-gQLA5faWjE-26" value="update status" style="text;html=1;align=center;verticalAlign=middle;resizable=0;points=[];autosize=1;strokeColor=none;fillColor=none;" vertex="1" parent="1">
          <mxGeometry x="550" y="430" width="100" height="30" as="geometry" />
        </mxCell>
        <mxCell id="pC1CZpYvU-gQLA5faWjE-27" value="" style="shape=flexArrow;endArrow=classic;html=1;rounded=0;exitX=1;exitY=0.25;exitDx=0;exitDy=0;" edge="1" parent="1" source="pC1CZpYvU-gQLA5faWjE-3">
          <mxGeometry width="50" height="50" relative="1" as="geometry">
            <mxPoint x="590" y="330" as="sourcePoint" />
            <mxPoint x="650" y="385" as="targetPoint" />
          </mxGeometry>
        </mxCell>
        <mxCell id="pC1CZpYvU-gQLA5faWjE-28" value="pause、stop" style="text;html=1;align=center;verticalAlign=middle;resizable=0;points=[];autosize=1;strokeColor=none;fillColor=none;" vertex="1" parent="1">
          <mxGeometry x="550" y="340" width="90" height="30" as="geometry" />
        </mxCell>
        <mxCell id="pC1CZpYvU-gQLA5faWjE-29" value="end、stop" style="text;html=1;align=center;verticalAlign=middle;resizable=0;points=[];autosize=1;strokeColor=none;fillColor=none;" vertex="1" parent="1">
          <mxGeometry x="360" y="300" width="80" height="30" as="geometry" />
        </mxCell>
        <mxCell id="pC1CZpYvU-gQLA5faWjE-30" value="" style="shape=flexArrow;endArrow=classic;html=1;rounded=0;exitX=0.5;exitY=1;exitDx=0;exitDy=0;" edge="1" parent="1" source="pC1CZpYvU-gQLA5faWjE-1">
          <mxGeometry width="50" height="50" relative="1" as="geometry">
            <mxPoint x="380" y="780" as="sourcePoint" />
            <mxPoint x="730" y="550" as="targetPoint" />
          </mxGeometry>
        </mxCell>
        <mxCell id="pC1CZpYvU-gQLA5faWjE-32" value="update status" style="text;html=1;align=center;verticalAlign=middle;resizable=0;points=[];autosize=1;strokeColor=none;fillColor=none;" vertex="1" parent="1">
          <mxGeometry x="727" y="460" width="100" height="30" as="geometry" />
        </mxCell>
        <mxCell id="pC1CZpYvU-gQLA5faWjE-33" value="update、check status" style="text;html=1;align=center;verticalAlign=middle;resizable=0;points=[];autosize=1;strokeColor=none;fillColor=none;" vertex="1" parent="1">
          <mxGeometry x="344" y="490" width="140" height="30" as="geometry" />
        </mxCell>
        <mxCell id="pC1CZpYvU-gQLA5faWjE-34" value="" style="shape=flexArrow;endArrow=classic;html=1;rounded=0;exitX=0.5;exitY=1;exitDx=0;exitDy=0;" edge="1" parent="1" source="pC1CZpYvU-gQLA5faWjE-3">
          <mxGeometry width="50" height="50" relative="1" as="geometry">
            <mxPoint x="540" y="540" as="sourcePoint" />
            <mxPoint x="480" y="550" as="targetPoint" />
          </mxGeometry>
        </mxCell>
        <mxCell id="pC1CZpYvU-gQLA5faWjE-35" value="update status" style="text;html=1;align=center;verticalAlign=middle;resizable=0;points=[];autosize=1;strokeColor=none;fillColor=none;" vertex="1" parent="1">
          <mxGeometry x="510" y="290" width="100" height="30" as="geometry" />
        </mxCell>
        <mxCell id="pC1CZpYvU-gQLA5faWjE-37" value="" style="shape=flexArrow;endArrow=classic;html=1;rounded=0;exitX=1.017;exitY=0.136;exitDx=0;exitDy=0;exitPerimeter=0;" edge="1" parent="1">
          <mxGeometry width="50" height="50" relative="1" as="geometry">
            <mxPoint x="284.5" y="399.5" as="sourcePoint" />
            <mxPoint x="413.5" y="399.5" as="targetPoint" />
          </mxGeometry>
        </mxCell>
      </root>
    </mxGraphModel>
  </diagram>
</mxfile>
